<svg width="23" height="23" viewBox="0 0 23 23" fill="none" xmlns="http://www.w3.org/2000/svg">
<path d="M10.1287 0.0393677C4.54389 0.0393677 0 4.57548 0 10.1507C0 15.7263 4.54389 20.2621 10.1287 20.2621C15.7138 20.2621 20.2574 15.7263 20.2574 10.1507C20.2574 4.57548 15.7138 0.0393677 10.1287 0.0393677ZM10.1287 18.3955C5.57485 18.3955 1.86992 14.6969 1.86992 10.1508C1.86992 5.60472 5.57485 1.90609 10.1287 1.90609C14.6826 1.90609 18.3875 5.60468 18.3875 10.1507C18.3875 14.6968 14.6826 18.3955 10.1287 18.3955Z" fill="#AEAEAE"/>
<path d="M22.7261 21.4067L17.3656 16.0555C17.0004 15.6908 16.4088 15.6908 16.0436 16.0555C15.6783 16.4198 15.6783 17.0109 16.0436 17.3752L21.404 22.7265C21.5866 22.9088 21.8257 23 22.065 23C22.3041 23 22.5434 22.9088 22.7261 22.7265C23.0913 22.3622 23.0913 21.771 22.7261 21.4067Z" fill="#AEAEAE"/>
</svg>
